<svg id="그룹_9257" data-name="그룹 9257" xmlns="http://www.w3.org/2000/svg" width="112.599" height="17.668" viewBox="0 0 112.599 17.668">
    <defs>
        <style>
            .cls-2{fill:#1a1a1a}
        </style>
    </defs>
    <path id="패스_1484" data-name="패스 1484" d="M359.369 267.513a1.826 1.826 0 1 1-1.822-1.946 1.887 1.887 0 0 1 1.822 1.946z" transform="translate(-266.606 -265.464)" style="fill:#e94932"/>
    <path id="패스_1485" data-name="패스 1485" class="cls-2" d="M166.22 266.094c3.932 0 5.826 1.485 5.826 4.507a3.567 3.567 0 0 1-2.326 3.457 4.108 4.108 0 0 1 2.973 4.1c0 3.379-2.014 4.942-6.522 4.942h-6.665v-17zm-2.924 6.914h2.3c1.7 0 2.542-.691 2.542-2 .072-1.357-.575-2-2.11-2H163.3zm2.589 7.17c1.822 0 2.757-.666 2.757-2.253.072-1.562-.863-2.3-2.709-2.3H163.3v4.558z" transform="translate(-159.507 -265.736)"/>
    <path id="패스_1486" data-name="패스 1486" class="cls-2" d="M194.2 282.907h-3.644v-17.182h3.644z" transform="translate(-176.453 -265.546)"/>
    <path id="패스_1487" data-name="패스 1487" class="cls-2" d="M200.592 282.027c0-3.79 2.4-6.325 6.114-6.325s6.09 2.535 6.09 6.325c0 3.738-2.421 6.273-6.162 6.273-3.717 0-6.042-2.509-6.042-6.273zm8.487.1v-.179c0-2.228-.863-3.431-2.4-3.431-1.51 0-2.374 1.2-2.374 3.431v.179c0 2.2.839 3.355 2.349 3.355 1.538.001 2.425-1.176 2.425-3.353z" transform="translate(-181.932 -270.683)"/>
    <path id="패스_1488" data-name="패스 1488" class="cls-2" d="M229.475 281.975c0-3.738 2.374-6.273 5.993-6.273a5.135 5.135 0 0 1 5.418 3.995l-3.355.947c-.264-1.153-.768-2.048-2.038-2.048-1.463 0-2.326 1.28-2.326 3.329v.154c0 2.074.792 3.329 2.253 3.329 1.367 0 1.967-.819 2.206-2.176l3.357.845a5.221 5.221 0 0 1-5.563 4.224c-3.739-.001-5.945-2.459-5.945-6.326z" transform="translate(-197.697 -270.683)"/>
    <path id="패스_1489" data-name="패스 1489" class="cls-2" d="m260.189 275.865 3.668-5.044h3.956L264 275.3l4 7.6h-3.86l-2.565-4.968-1.391 1.792v3.175h-3.572v-17.174h3.572z" transform="translate(-212.511 -265.546)"/>
    <path id="패스_1490" data-name="패스 1490" class="cls-2" d="M283.282 277.185h3.525c.36 1.972 1.367 2.842 3.573 2.842 1.63 0 2.565-.768 2.565-2.074 0-1.254-1.654-1.588-3.717-2.048-2.589-.615-5.562-1.588-5.562-5.019 0-3.252 2.637-5.531 6.306-5.531 4.028 0 6.353 2.177 6.689 5.813h-3.476a2.845 2.845 0 0 0-3.237-2.792c-1.51 0-2.421.768-2.421 2.023 0 1.408 1.846 1.664 3.932 2.125 2.565.563 5.346 1.46 5.346 4.942 0 3.38-2.4 5.556-6.329 5.556-4.413.001-6.763-2.406-7.194-5.837z" transform="translate(-227.065 -265.355)"/>
    <path id="패스_1491" data-name="패스 1491" class="cls-2" d="M318.691 277.876a3.4 3.4 0 0 1 3.356-2.279 3.1 3.1 0 0 1 3.165 2.509 3.676 3.676 0 0 1 3.765-2.509c2.277 0 3.644 1.741 3.644 4.993v7.4h-3.644v-7.09c0-1.485-.528-2.176-1.583-2.176-1.175 0-1.727.845-1.727 2.509v6.76h-3.644v-7.17c0-1.408-.527-2.1-1.582-2.1-1.03 0-1.726.768-1.726 2.509v6.76h-3.645V275.9h3.621z" transform="translate(-244.416 -270.629)"/>
    <path id="사각형_3066" data-name="사각형 3066" class="cls-2" transform="translate(89.119 5.275)" d="M0 0h3.644v12.086H0z"/>
    <path id="패스_1492" data-name="패스 1492" class="cls-2" d="M370.126 283.831c-2.349-.179-2.805-1.331-2.853-3.482v-5.864h-1.512v-2.74h1.512v-2.355l3.572-1.87v4.225h2.037v2.74h-2.062v5.71a.684.684 0 0 0 .743.794h1.247v2.842z" transform="translate(-272.084 -266.469)"/>
    <path id="패스_1493" data-name="패스 1493" class="cls-2" d="M387.052 272.843a3.376 3.376 0 0 1 3.333-2.279c2.469 0 3.955 1.741 3.955 5.07v7.272h-3.64v-7.016c0-1.485-.5-2.253-1.726-2.253-1.2 0-1.918 1.024-1.918 2.919v6.351h-3.6v-17.182h3.6z" transform="translate(-281.741 -265.546)"/>
</svg>
